# 3ds Max Wavefront OBJ Exporter v0.97b - (c)2007 guruware
# File Created: 20.01.2017 23:27:36

#
# object skybox
#

v  -1968.503906 -1968.503906 1968.503906
v  1968.503906 -1968.503906 1968.503906
v  -1968.503906 -1968.503906 -1968.503906
v  1968.503906 -1968.503906 -1968.503906
v  -1968.503906 1968.503906 1968.503906
v  1968.503906 1968.503906 1968.503906
v  -1968.503906 1968.503906 -1968.503906
v  1968.503906 1968.503906 -1968.503906
# 8 vertices

vn 0.577350 0.577350 -0.577350
vn -0.577350 0.577350 -0.577350
vn -0.577350 0.577350 0.577350
vn 0.577350 0.577350 0.577350
vn 0.577350 -0.577350 -0.577350
vn 0.577350 -0.577350 0.577350
vn -0.577350 -0.577350 0.577350
vn -0.577350 -0.577350 -0.577350
# 8 vertex normals

vt 0.498807 0.000000 0.000000
vt 0.498807 0.334924 0.000000
vt 0.256563 0.334924 0.000000
vt 0.256563 0.000000 0.000000
vt 0.497374 0.672236 0.000000
vt 0.497374 0.993795 0.000000
vt 0.252864 0.993795 0.000000
vt 0.252864 0.672236 0.000000
vt 1.000000 0.330947 0.000000
vt 1.000000 0.666492 0.000000
vt 0.754243 0.666492 0.000000
vt 0.754243 0.330947 0.000000
vt 0.754177 0.332538 0.000000
vt 0.754177 0.669053 0.000000
vt 0.498807 0.669053 0.000000
vt 0.498807 0.332538 0.000000
vt 0.498926 0.328878 0.000000
vt 0.498926 0.669053 0.000000
vt 0.248210 0.669053 0.000000
vt 0.248210 0.328878 0.000000
vt 0.250476 0.333732 0.000000
vt 0.250476 0.667382 0.000000
vt 0.001489 0.667382 0.000000
vt 0.001489 0.333732 0.000000
# 24 texture coords

g skybox
s 1
f -8/-24/-8 -7/-23/-7 -5/-22/-6 -6/-21/-5 
f -4/-20/-4 -2/-19/-3 -1/-18/-2 -3/-17/-1 
f -8/-16/-8 -4/-15/-4 -3/-14/-1 -7/-13/-7 
f -7/-12/-7 -3/-11/-1 -1/-10/-2 -5/-9/-6 
f -5/-8/-6 -1/-7/-2 -2/-6/-3 -6/-5/-5 
f -6/-4/-5 -2/-3/-3 -4/-2/-4 -8/-1/-8 
# 6 polygons

