# 3ds Max Wavefront OBJ Exporter v0.97b - (c)2007 guruware
# File Created: 20.01.2017 23:49:10

#
# object skybox
#

v  -1968.503906 -1968.503906 1968.503906
v  1968.503906 -1968.503906 1968.503906
v  -1968.503906 -1968.503906 -1968.503906
v  1968.503906 -1968.503906 -1968.503906
v  -1968.503906 1968.503906 1968.503906
v  1968.503906 1968.503906 1968.503906
v  -1968.503906 1968.503906 -1968.503906
v  1968.503906 1968.503906 -1968.503906
# 8 vertices

vn 0.577350 0.577350 -0.577350
vn -0.577350 0.577350 -0.577350
vn -0.577350 0.577350 0.577350
vn 0.577350 0.577350 0.577350
vn 0.577350 -0.577350 -0.577350
vn 0.577350 -0.577350 0.577350
vn -0.577350 -0.577350 0.577350
vn -0.577350 -0.577350 -0.577350
# 8 vertex normals

vt 0.500014 0.333349 0.707107
vt 0.500000 0.000037 0.000000
vt 0.250018 0.000041 0.000000
vt 0.250019 0.333349 0.707107
vt 0.500014 0.666641 0.707107
vt 0.250019 0.666641 0.707107
vt 0.250067 0.999890 0.000000
vt 0.499985 0.999889 0.000000
vt 0.750009 0.666641 0.707107
vt 0.750009 0.333349 0.707107
vt 1.000004 0.666641 0.707107
vt 1.000004 0.333349 0.707107
vt 0.000025 0.333349 0.707107
vt 0.000025 0.666641 0.707107
# 14 texture coords

g skybox
s 1
f -8/-14/-8 -7/-13/-7 -5/-12/-6 -6/-11/-5 
f -4/-10/-4 -2/-9/-3 -1/-8/-2 -3/-7/-1 
f -8/-14/-8 -4/-10/-4 -3/-6/-1 -7/-5/-7 
f -7/-5/-7 -3/-6/-1 -1/-4/-2 -5/-3/-6 
f -5/-2/-6 -1/-1/-2 -2/-9/-3 -6/-11/-5 
f -6/-11/-5 -2/-9/-3 -4/-10/-4 -8/-14/-8 
# 6 polygons

