# OBJ written from /Users/shemit/Dropbox/ggj2017/ggj2017/Scenes/Sign/sign.obj
# Units	meters

o Mesh
v -0.188158 0.150724 -0.0035
v -0.259469 0.478465 -0.0035
v 0.157154 0.504841 -0.0035
v 0.195155 0.200603 -0.0035
v -0.186797 0.0845816 0.0105
v -0.214719 0.418826 0.0105
v 0.201782 0.390597 0.0105
v 0.199747 0.0840017 0.0105
v 0.154466 0.195242 -0.0035
v 0.112957 0.501881 -0.0035
v -0.144728 0.156362 -0.0035
v -0.211999 0.481557 -0.0035
v 0.157577 0.393431 0.0105
v -0.167252 0.415696 0.0105
v 0.158706 0.0839977 0.0105
v -0.143003 0.0845032 0.0105
v -0.190318 0.126373 0.0105
v -0.197104 0.191698 -0.0035
v -0.210606 0.369845 0.0105
v -0.248998 0.430439 -0.0035
v 0.190749 0.235397 -0.0035
v 0.19992 0.119073 0.0105
v 0.162239 0.463223 -0.0035
v 0.201391 0.348672 0.0105
v 0.149667 0.2308 -0.0035
v 0.118634 0.459663 -0.0035
v -0.153028 0.196658 -0.0035
v -0.202096 0.434272 -0.0035
v 0.149667 0.2308 0.0105
v 0.118634 0.459663 0.0105
v -0.153028 0.196658 0.0105
v -0.202096 0.434272 0.0105
v 0.195155 0.200603 0.0195
v 0.190749 0.235397 0.0195
v 0.149667 0.2308 0.0195
v 0.154466 0.195242 0.0195
v 0.162239 0.463223 0.0195
v 0.118634 0.459663 0.0195
v 0.157154 0.504841 0.0195
v 0.112957 0.501881 0.0195
v -0.153028 0.196658 0.0195
v -0.144728 0.156362 0.0195
v -0.211999 0.481557 0.0195
v -0.202096 0.434272 0.0195
v -0.197104 0.191698 0.0195
v -0.188158 0.150724 0.0195
v -0.248998 0.430439 0.0195
v -0.259469 0.478465 0.0195
v -0.0189597 -0.0375952 -0.022
v 0.0418082 -0.0322787 -0.022
v 0.0418082 -0.0322787 -0.002
v -0.0189597 -0.0375952 -0.002
v -0.0811236 0.55936 -0.022
v -0.00187419 0.580595 -0.022
v -0.00187419 0.580595 -0.002
v -0.0811236 0.55936 -0.002
v 0.00129626 -0.035823 -0.022
v 0.00129626 -0.035823 -0.002
v 0.0215523 -0.0340509 -0.022
v 0.0215523 -0.0340509 -0.002
v -0.0607071 0.590438 -0.022
v -0.0342906 0.597516 -0.022
v -0.0607071 0.590438 -0.002
v -0.0342906 0.597516 -0.002
vn 0 0 -1
vn 0 0 1
vn -0.990932 -0.134366 0
vn -0.112084 0.993699 0
vn 0.0789209 -0.996881 0
vn 0.979337 0.202234 0
vn -0.977114 -0.212717 0
vn -0.977046 -0.213028 0
vn 0.128808 -0.99167 0
vn 0.128751 -0.991677 0
vn -0.976987 -0.213297 0
vn -0.977085 -0.212852 0
vn 0.992077 0.125635 0
vn 0.992169 0.124904 0
vn 0.129744 -0.991548 0
vn 0.130623 -0.991432 0
vn -0.066822 0.997765 0
vn -0.0646219 0.99791 0
vn 0.992619 0.121274 0
vn 0.992441 0.122724 0
vn -0.0637155 0.997968 0
vn -0.0650095 0.997885 0
vn 0.99747 0.0710944 0
vn -0.971637 0.236476 0
vn -0.994622 -0.103575 0
vn 0.0871558 -0.996195 0
vn 0.0871557 -0.996195 0
vn -0.835784 0.549058 0
vn -0.258817 0.965926 0
vn 0.462756 0.886486 0
vt 0.573313 0.423251
vt 0.542104 0.426425
vt 0.538383 0.390365
vt 0.567024 0.391624
vt 0.342683 0.449195
vt 0.340329 0.410877
vt 0.305615 0.453214
vt 0.307849 0.417966
vt 0.601017 0.684092
vt 0.565549 0.690412
vt 0.358166 0.728777
vt 0.316591 0.736034
vt 0.601034 0.719063
vt 0.569179 0.729109
vt 0.361174 0.769908
vt 0.321976 0.77364
vt 0.938081 0.075646
vt 0.9975 0.786511
vt 0.0133863 0.924354
vt 0.00250006 0.175045
vt 0.90775 0.348394
vt 0.901707 0.35478
vt 0.664805 0.381952
vt 0.657474 0.376904
vt 0.704912 0.64136
vt 0.699098 0.647643
vt 0.929669 0.641148
vt 0.922953 0.635381
vt 0.625603 0.346072
vt 0.655065 0.3426
vt 0.628009 0.380864
vt 0.899558 0.313162
vt 0.936268 0.309697
vt 0.943058 0.347942
vt 0.664908 0.649111
vt 0.969887 0.642654
vt 0.705384 0.683972
vt 0.67013 0.685594
vt 0.934164 0.680102
vt 0.974721 0.681658
vt 0.364177 0.790303
vt 0.310086 0.788975
vt 0.621324 0.682737
vt 0.616341 0.729994
vt 0.574101 0.748873
vt 0.537489 0.370458
vt 0.577425 0.374798
vt 0.59353 0.420176
vt 0.293357 0.405927
vt 0.285279 0.453268
vt 0.337202 0.390723
vt 0.29623 0.737647
vt 0.164038 0.830811
vt 0.143172 0.8304
vt 0.14067 0.267482
vt 0.161542 0.267259
vt 0.0590069 0.81567
vt 0.0381463 0.81478
vt 0.0561901 0.266415
vt 0.0770524 0.267015
vt 0.0772544 0.246569
vt 0.0984185 0.246793
vt 0.0982541 0.267349
vt 0.119598 0.246994
vt 0.119483 0.267424
vt 0.140798 0.247006
vt 0.248045 0.815997
vt 0.224607 0.843614
vt 0.203966 0.265947
vt 0.225191 0.265508
vt 0.196601 0.848344
vt 0.182764 0.266422
vt 0.0828195 0.842381
vt 0.110643 0.847383
vt 0.075384 0.861522
vt 0.043131 0.83223
vt 0.114315 0.866742
vt 0.15101 0.849711
mtllib sign.mtl
usemtl wood
g Default
f 9/1/1 25/2/1 21/3/1 4/4/1
f 25/2/1 26/5/1 23/6/1 21/3/1
f 26/5/1 10/7/1 3/8/1 23/6/1
f 11/9/1 27/10/1 25/2/1 9/1/1
f 27/10/1 28/11/1 26/5/1 25/2/1
f 28/11/1 12/12/1 10/7/1 26/5/1
f 1/13/1 18/14/1 27/10/1 11/9/1
f 18/14/1 20/15/1 28/11/1 27/10/1
f 20/15/1 2/16/1 12/12/1 28/11/1
f 38/21/3 30/22/3 29/23/3 35/24/3
f 35/24/4 29/23/4 31/25/4 41/26/4
f 44/27/5 32/28/5 30/22/5 38/21/5
f 41/26/6 31/25/6 32/28/6 44/27/6
f 33/29/2 34/30/2 35/24/2 36/31/2
f 34/30/2 37/32/2 38/21/2 35/24/2
f 37/32/2 39/33/2 40/34/2 38/21/2
f 36/31/2 35/24/2 41/26/2 42/35/2
f 38/21/2 40/34/2 43/36/2 44/27/2
f 42/35/2 41/26/2 45/37/2 46/38/2
f 41/26/2 44/27/2 47/39/2 45/37/2
f 44/27/2 43/36/2 48/40/2 47/39/2
f 20/15/7 47/41/7 48/42/8 2/16/8
f 11/9/9 42/43/9 46/44/10 1/13/10
f 46/44/11 45/45/12 18/14/12 1/13/11
f 45/45/12 47/41/7 20/15/7 18/14/12
f 4/4/13 21/3/14 34/46/14 33/47/13
f 11/9/9 9/1/15 36/48/15 42/43/9
f 9/1/15 4/4/16 33/47/16 36/48/15
f 39/49/17 3/8/17 10/7/18 40/50/18
f 39/49/19 37/51/20 23/6/20 3/8/19
f 37/51/20 34/46/14 21/3/14 23/6/20
f 10/7/18 12/12/21 43/52/21 40/50/18
f 12/12/21 2/16/22 48/42/22 43/52/21
f 54/53/23 55/54/23 51/55/23 50/56/23
f 56/57/24 53/58/24 49/59/25 52/60/25
f 49/61/26 57/62/27 58/63/27 52/60/26
f 57/62/27 59/64/27 60/65/27 58/63/27
f 59/64/27 50/66/26 51/55/26 60/65/27
f 53/67/1 61/68/1 57/69/1 49/70/1
f 61/68/1 62/71/1 59/72/1 57/69/1
f 62/71/1 54/53/1 50/56/1 59/72/1
f 52/60/2 58/63/2 63/73/2 56/57/2
f 58/63/2 60/65/2 64/74/2 63/73/2
f 60/65/2 51/55/2 55/54/2 64/74/2
f 56/57/24 63/73/28 61/75/28 53/76/24
f 63/73/29 64/74/29 62/77/29 61/75/29
f 64/74/30 55/54/30 54/78/30 62/77/30
usemtl panel
f 29/17/2 30/18/2 32/19/2 31/20/2
