# 3ds Max Wavefront OBJ Exporter v0.97b - (c)2007 guruware
# File Created: 21.01.2017 01:46:22

#
# object test_arrow
#

v  -0.105389 -0.080000 0.565269
v  0.105389 -0.080000 0.565269
v  0.105389 -0.080000 -0.143713
v  0.320958 -0.080000 -0.143713
v  0.004790 -0.080000 -0.565269
v  -0.320958 -0.080000 -0.148503
v  -0.100599 -0.080000 -0.148503
v  -0.083932 0.080000 0.520260
v  0.084482 0.080000 0.520260
v  0.084482 0.080000 -0.170582
v  0.256724 0.080000 -0.170582
v  0.004103 0.080000 -0.507410
v  -0.256173 0.080000 -0.174410
v  -0.080104 0.080000 -0.174410
v  0.105389 0.000000 0.565269
v  -0.105389 0.000000 0.565269
v  0.105389 0.000000 -0.143713
v  0.320958 0.000000 -0.143713
v  0.004790 0.000000 -0.565269
v  -0.320958 0.000000 -0.148503
v  -0.100599 0.000000 -0.148503
# 21 vertices

vn 0.000000 0.000000 1.000000
vn 1.000000 0.000000 -0.000000
vn 0.800000 0.000000 -0.600000
vn -0.787887 0.000000 -0.615820
vn -0.999977 0.000000 -0.006711
vn 0.000000 -1.000000 -0.000000
vn 0.000000 1.000000 -0.000000
vn 0.000000 0.490338 0.871532
vn 0.967506 0.252848 -0.000000
vn 0.000000 0.318390 0.947960
vn 0.732029 0.403370 -0.549022
vn -0.721533 0.401676 -0.563957
vn 0.000000 0.308082 0.951360
vn -0.967926 0.251164 -0.005923
# 14 vertex normals

g test_arrow
s off
f -20//-14 -7//-14 -6//-14 -21//-14 
f -19//-13 -5//-13 -7//-13 -20//-13 
f -18//-14 -4//-14 -5//-14 -19//-14 
f -17//-12 -3//-12 -4//-12 -18//-12 
f -16//-11 -2//-11 -3//-11 -17//-11 
f -15//-14 -1//-14 -2//-14 -16//-14 
f -21//-10 -6//-10 -1//-10 -15//-10 
f -19//-9 -20//-9 -21//-9 -15//-9 
f -18//-9 -19//-9 -15//-9 -17//-9 
f -17//-9 -15//-9 -16//-9 
f -10//-8 -9//-8 -8//-8 -11//-8 
f -14//-8 -13//-8 -12//-8 -8//-8 
f -8//-8 -12//-8 -11//-8 
f -13//-7 -14//-7 -6//-7 -7//-7 
f -12//-6 -13//-6 -7//-6 -5//-6 
f -11//-5 -12//-5 -5//-5 -4//-5 
f -10//-4 -11//-4 -4//-4 -3//-4 
f -9//-3 -10//-3 -3//-3 -2//-3 
f -8//-2 -9//-2 -2//-2 -1//-2 
f -14//-1 -8//-1 -1//-1 -6//-1 
# 18 polygons - 2 triangles

